<?xml version="1.0" encoding="UTF-8" standalone="no"?>
<!DOCTYPE svg PUBLIC "-//W3C//DTD SVG 1.1//EN"
 "http://www.w3.org/Graphics/SVG/1.1/DTD/svg11.dtd">
<!-- Generated by graphviz version 2.43.0 (0)
 -->
<!-- Title: sqlflow Pages: 1 -->
<svg width="743pt" height="528pt"
 viewBox="0.00 0.00 742.60 527.60" xmlns="http://www.w3.org/2000/svg" xmlns:xlink="http://www.w3.org/1999/xlink">
<g id="graph0" class="graph" transform="scale(1 1) rotate(0) translate(28.8 498.8)">
<title>sqlflow</title>
<polygon fill="#fafafa" stroke="transparent" points="-28.8,28.8 -28.8,-498.8 713.8,-498.8 713.8,28.8 -28.8,28.8"/>
<g id="clust3" class="cluster">
<title>cluster_legend</title>
<path fill="#ffffff" stroke="#cccccc" d="M20,-122C20,-122 171,-122 171,-122 177,-122 183,-128 183,-134 183,-134 183,-450 183,-450 183,-456 177,-462 171,-462 171,-462 20,-462 20,-462 14,-462 8,-456 8,-450 8,-450 8,-134 8,-134 8,-128 14,-122 20,-122"/>
</g>
<!-- tbl_dbo_orders -->
<g id="node1" class="node">
<title>tbl_dbo_orders</title>
<polygon fill="#34495e" stroke="transparent" points="13.5,-78 13.5,-101 178.5,-101 178.5,-78 13.5,-78"/>
<polygon fill="none" stroke="black" points="13.5,-78 13.5,-101 178.5,-101 178.5,-78 13.5,-78"/>
<text text-anchor="start" x="17.5" y="-86.8" font-family="Helvetica,sans-Serif" font-weight="bold" font-size="14.00" fill="white">dbo.orders</text>
<polygon fill="#f9f9f9" stroke="transparent" points="13.5,-55 13.5,-78 106.5,-78 106.5,-55 13.5,-55"/>
<polygon fill="none" stroke="black" points="13.5,-55 13.5,-78 106.5,-78 106.5,-55 13.5,-55"/>
<text text-anchor="start" x="17.5" y="-62.8" font-family="Helvetica,sans-Serif" font-size="14.00">order_id</text>
<polygon fill="#f9f9f9" stroke="transparent" points="106.5,-55 106.5,-78 178.5,-78 178.5,-55 106.5,-55"/>
<polygon fill="none" stroke="black" points="106.5,-55 106.5,-78 178.5,-78 178.5,-55 106.5,-55"/>
<text text-anchor="start" x="110.5" y="-62.8" font-family="Helvetica,sans-Serif" font-size="14.00" fill="#999999">INT</text>
<polygon fill="#d4edff" stroke="transparent" points="13.5,-32 13.5,-55 106.5,-55 106.5,-32 13.5,-32"/>
<polygon fill="none" stroke="black" points="13.5,-32 13.5,-55 106.5,-55 106.5,-32 13.5,-32"/>
<text text-anchor="start" x="17.5" y="-39.8" font-family="Helvetica,sans-Serif" font-size="14.00">customer_id</text>
<polygon fill="#d4edff" stroke="transparent" points="106.5,-32 106.5,-55 178.5,-55 178.5,-32 106.5,-32"/>
<polygon fill="none" stroke="black" points="106.5,-32 106.5,-55 178.5,-55 178.5,-32 106.5,-32"/>
<text text-anchor="start" x="110.5" y="-39.8" font-family="Helvetica,sans-Serif" font-size="14.00" fill="#999999">INT</text>
<polygon fill="#d4edff" stroke="transparent" points="13.5,-9 13.5,-32 106.5,-32 106.5,-9 13.5,-9"/>
<polygon fill="none" stroke="black" points="13.5,-9 13.5,-32 106.5,-32 106.5,-9 13.5,-9"/>
<text text-anchor="start" x="17.5" y="-16.8" font-family="Helvetica,sans-Serif" font-size="14.00">amount</text>
<polygon fill="#d4edff" stroke="transparent" points="106.5,-9 106.5,-32 178.5,-32 178.5,-9 106.5,-9"/>
<polygon fill="none" stroke="black" points="106.5,-9 106.5,-32 178.5,-32 178.5,-9 106.5,-9"/>
<text text-anchor="start" x="110.5" y="-16.8" font-family="Helvetica,sans-Serif" font-size="14.00" fill="#999999">DECIMAL</text>
</g>
<!-- stg_1_recent -->
<g id="node4" class="node">
<title>stg_1_recent</title>
<polygon fill="#1e6b45" stroke="transparent" points="246.5,-87 246.5,-110 423.5,-110 423.5,-87 246.5,-87"/>
<polygon fill="none" stroke="black" points="246.5,-87 246.5,-110 423.5,-110 423.5,-87 246.5,-87"/>
<text text-anchor="start" x="250.5" y="-95.8" font-family="Helvetica,sans-Serif" font-weight="bold" font-size="14.00" fill="white">recent</text>
<text text-anchor="start" x="302.5" y="-95.8" font-family="Helvetica,sans-Serif" font-size="14.00" fill="white"> </text>
<text text-anchor="start" x="307.5" y="-95.8" font-family="Helvetica,sans-Serif" font-size="9.00" fill="white">(CTE)</text>
<polygon fill="#ffffff" stroke="transparent" points="246.5,-64 246.5,-87 341.5,-87 341.5,-64 246.5,-64"/>
<polygon fill="none" stroke="black" points="246.5,-64 246.5,-87 341.5,-87 341.5,-64 246.5,-64"/>
<text text-anchor="start" x="250.5" y="-71.8" font-family="Helvetica,sans-Serif" font-size="14.00">customer_id</text>
<polygon fill="#ffffff" stroke="transparent" points="341.5,-64 341.5,-87 423.5,-87 423.5,-64 341.5,-64"/>
<polygon fill="none" stroke="black" points="341.5,-64 341.5,-87 423.5,-87 423.5,-64 341.5,-64"/>
<g id="a_node4_0"><a xlink:href="#" xlink:title="SUM([o].[amount]) AS [total]">
<polygon fill="#fff3cd" stroke="transparent" points="246.5,-41 246.5,-64 341.5,-64 341.5,-41 246.5,-41"/>
<polygon fill="none" stroke="black" points="246.5,-41 246.5,-64 341.5,-64 341.5,-41 246.5,-41"/>
<text text-anchor="start" x="250.5" y="-48.8" font-family="Helvetica,sans-Serif" font-size="14.00">total</text>
</a>
</g>
<polygon fill="#fff3cd" stroke="transparent" points="341.5,-41 341.5,-64 423.5,-64 423.5,-41 341.5,-41"/>
<polygon fill="none" stroke="black" points="341.5,-41 341.5,-64 423.5,-64 423.5,-41 341.5,-41"/>
<text text-anchor="start" x="345.5" y="-48.8" font-family="Helvetica,sans-Serif" font-size="14.00" fill="#777777">aggregate</text>
<g id="a_node4_1"><a xlink:href="#" xlink:title="COUNT(*) AS [n]">
<polygon fill="#fff3cd" stroke="transparent" points="246.5,-18 246.5,-41 341.5,-41 341.5,-18 246.5,-18"/>
<polygon fill="none" stroke="black" points="246.5,-18 246.5,-41 341.5,-41 341.5,-18 246.5,-18"/>
<text text-anchor="start" x="250.5" y="-25.8" font-family="Helvetica,sans-Serif" font-size="14.00">n</text>
</a>
</g>
<polygon fill="#fff3cd" stroke="transparent" points="341.5,-18 341.5,-41 423.5,-41 423.5,-18 341.5,-18"/>
<polygon fill="none" stroke="black" points="341.5,-18 341.5,-41 423.5,-41 423.5,-18 341.5,-18"/>
<text text-anchor="start" x="345.5" y="-25.8" font-family="Helvetica,sans-Serif" font-size="14.00" fill="#777777">aggregate</text>
<polygon fill="#f0f0f0" stroke="transparent" points="246.5,0 246.5,-18 423.5,-18 423.5,0 246.5,0"/>
<polygon fill="none" stroke="black" points="246.5,0 246.5,-18 423.5,-18 423.5,0 246.5,0"/>
<text text-anchor="start" x="250.5" y="-7.8" font-family="Helvetica,sans-Serif" font-style="italic" font-size="9.00" fill="#555555">GROUP BY customer_id; SUM, COUNT</text>
</g>
<!-- tbl_dbo_orders&#45;&gt;stg_1_recent -->
<g id="edge1" class="edge">
<title>tbl_dbo_orders&#45;&gt;stg_1_recent</title>
<g id="a_edge1"><a xlink:title="FROM">
<path fill="none" stroke="#cccccc" d="M178.06,-55C197.93,-55 219.33,-55 239.71,-55"/>
<polygon fill="#cccccc" stroke="#cccccc" points="239.72,-57.1 245.72,-55 239.72,-52.9 239.72,-57.1"/>
</a>
</g>
</g>
<!-- tbl_dbo_orders&#45;&gt;stg_1_recent -->
<g id="edge5" class="edge">
<title>tbl_dbo_orders:customer_id&#45;&gt;stg_1_recent:customer_id</title>
<g id="a_edge5"><a xlink:title="customer_id &#45;&gt; customer_id">
<path fill="none" stroke="#4a90d9" stroke-dasharray="5,2" d="M12.5,-43C12.5,-43 13.5,-9 13.5,-9 13.5,-9 178,-9 178,-9 178,-9 211,-71 211,-71 211,-71 228.44,-73.53 238.52,-74.99"/>
<polygon fill="#4a90d9" stroke="#4a90d9" points="238.22,-77.42 245.5,-76 238.92,-72.57 238.22,-77.42"/>
</a>
</g>
</g>
<!-- tbl_dbo_orders&#45;&gt;stg_1_recent -->
<g id="edge6" class="edge">
<title>tbl_dbo_orders:amount&#45;&gt;stg_1_recent:total</title>
<g id="a_edge6"><a xlink:title="amount &#45;&gt; total">
<path fill="none" stroke="#4a90d9" stroke-dasharray="5,2" d="M59.5,-8C59.5,-8 178,-9 178,-9 178,-9 222.56,-37.39 239.27,-48.03"/>
<polygon fill="#4a90d9" stroke="#4a90d9" points="238.28,-50.31 245.5,-52 240.91,-46.17 238.28,-50.31"/>
</a>
</g>
</g>
<!-- tbl_dbo_customers -->
<g id="node2" class="node">
<title>tbl_dbo_customers</title>
<polygon fill="#34495e" stroke="transparent" points="245.5,-307 245.5,-330 424.5,-330 424.5,-307 245.5,-307"/>
<polygon fill="none" stroke="black" points="245.5,-307 245.5,-330 424.5,-330 424.5,-307 245.5,-307"/>
<text text-anchor="start" x="249.5" y="-315.8" font-family="Helvetica,sans-Serif" font-weight="bold" font-size="14.00" fill="white">dbo.customers</text>
<polygon fill="#a9c9ee" stroke="transparent" points="245.5,-284 245.5,-307 348.5,-307 348.5,-284 245.5,-284"/>
<polygon fill="none" stroke="black" points="245.5,-284 245.5,-307 348.5,-307 348.5,-284 245.5,-284"/>
<text text-anchor="start" x="249.5" y="-292.8" font-family="Helvetica,sans-Serif" font-weight="bold" font-size="14.00">customer_id</text>
<polygon fill="#a9c9ee" stroke="transparent" points="348.5,-284 348.5,-307 424.5,-307 424.5,-284 348.5,-284"/>
<polygon fill="none" stroke="black" points="348.5,-284 348.5,-307 424.5,-307 424.5,-284 348.5,-284"/>
<text text-anchor="start" x="352.5" y="-291.8" font-family="Helvetica,sans-Serif" font-size="14.00" fill="#999999">INT</text>
<polygon fill="#f9f9f9" stroke="transparent" points="245.5,-261 245.5,-284 348.5,-284 348.5,-261 245.5,-261"/>
<polygon fill="none" stroke="black" points="245.5,-261 245.5,-284 348.5,-284 348.5,-261 245.5,-261"/>
<text text-anchor="start" x="249.5" y="-268.8" font-family="Helvetica,sans-Serif" font-size="14.00">name</text>
<polygon fill="#f9f9f9" stroke="transparent" points="348.5,-261 348.5,-284 424.5,-284 424.5,-261 348.5,-261"/>
<polygon fill="none" stroke="black" points="348.5,-261 348.5,-284 424.5,-284 424.5,-261 348.5,-261"/>
<text text-anchor="start" x="352.5" y="-268.8" font-family="Helvetica,sans-Serif" font-size="14.00" fill="#999999">VARCHAR</text>
<polygon fill="#ffd699" stroke="transparent" points="245.5,-238 245.5,-261 348.5,-261 348.5,-238 245.5,-238"/>
<polygon fill="none" stroke="black" points="245.5,-238 245.5,-261 348.5,-261 348.5,-238 245.5,-238"/>
<text text-anchor="start" x="249.5" y="-246.8" font-family="Helvetica,sans-Serif" font-weight="bold" font-size="14.00">region_id</text>
<polygon fill="#ffd699" stroke="transparent" points="348.5,-238 348.5,-261 424.5,-261 424.5,-238 348.5,-238"/>
<polygon fill="none" stroke="black" points="348.5,-238 348.5,-261 424.5,-261 424.5,-238 348.5,-238"/>
<text text-anchor="start" x="352.5" y="-245.8" font-family="Helvetica,sans-Serif" font-size="14.00" fill="#999999">INT</text>
</g>
<!-- stg_2___summary_ -->
<g id="node5" class="node">
<title>stg_2___summary_</title>
<polygon fill="#1a4f7a" stroke="transparent" points="535,-178 535,-201 685,-201 685,-178 535,-178"/>
<polygon fill="none" stroke="black" points="535,-178 535,-201 685,-201 685,-178 535,-178"/>
<text text-anchor="start" x="539" y="-186.8" font-family="Helvetica,sans-Serif" font-weight="bold" font-size="14.00" fill="white">[#summary]</text>
<text text-anchor="start" x="637" y="-186.8" font-family="Helvetica,sans-Serif" font-size="14.00" fill="white"> </text>
<text text-anchor="start" x="642" y="-186.8" font-family="Helvetica,sans-Serif" font-size="9.00" fill="white">(output)</text>
<polygon fill="#ffffff" stroke="transparent" points="535,-155 535,-178 655,-178 655,-155 535,-155"/>
<polygon fill="none" stroke="black" points="535,-155 535,-178 655,-178 655,-155 535,-155"/>
<text text-anchor="start" x="539" y="-162.8" font-family="Helvetica,sans-Serif" font-size="14.00">customer_id</text>
<polygon fill="#ffffff" stroke="transparent" points="655,-155 655,-178 685,-178 685,-155 655,-155"/>
<polygon fill="none" stroke="black" points="655,-155 655,-178 685,-178 685,-155 655,-155"/>
<polygon fill="#ffffff" stroke="transparent" points="535,-132 535,-155 655,-155 655,-132 535,-132"/>
<polygon fill="none" stroke="black" points="535,-132 535,-155 655,-155 655,-132 535,-132"/>
<text text-anchor="start" x="539" y="-139.8" font-family="Helvetica,sans-Serif" font-size="14.00">region_name</text>
<polygon fill="#ffffff" stroke="transparent" points="655,-132 655,-155 685,-155 685,-132 655,-132"/>
<polygon fill="none" stroke="black" points="655,-132 655,-155 685,-155 685,-132 655,-132"/>
<polygon fill="#ffffff" stroke="transparent" points="535,-109 535,-132 655,-132 655,-109 535,-109"/>
<polygon fill="none" stroke="black" points="535,-109 535,-132 655,-132 655,-109 535,-109"/>
<text text-anchor="start" x="539" y="-116.8" font-family="Helvetica,sans-Serif" font-size="14.00">total</text>
<polygon fill="#ffffff" stroke="transparent" points="655,-109 655,-132 685,-132 685,-109 655,-109"/>
<polygon fill="none" stroke="black" points="655,-109 655,-132 685,-132 685,-109 655,-109"/>
<polygon fill="#ffffff" stroke="transparent" points="535,-86 535,-109 655,-109 655,-86 535,-86"/>
<polygon fill="none" stroke="black" points="535,-86 535,-109 655,-109 655,-86 535,-86"/>
<text text-anchor="start" x="539" y="-93.8" font-family="Helvetica,sans-Serif" font-size="14.00">n</text>
<polygon fill="#ffffff" stroke="transparent" points="655,-86 655,-109 685,-109 685,-86 655,-86"/>
<polygon fill="none" stroke="black" points="655,-86 655,-109 685,-109 685,-86 655,-86"/>
</g>
<!-- tbl_dbo_customers&#45;&gt;stg_2___summary_ -->
<g id="edge2" class="edge">
<title>tbl_dbo_customers&#45;&gt;stg_2___summary_</title>
<g id="a_edge2"><a xlink:title="FROM">
<path fill="none" stroke="#cccccc" d="M424.3,-238.55C458.06,-221.26 496.29,-201.69 529.18,-184.86"/>
<polygon fill="#cccccc" stroke="#cccccc" points="530.45,-186.57 534.83,-181.97 528.53,-182.83 530.45,-186.57"/>
</a>
</g>
</g>
<!-- tbl_dbo_customers&#45;&gt;stg_2___summary_ -->
<g id="edge7" class="edge">
<title>tbl_dbo_customers:customer_id&#45;&gt;stg_2___summary_:customer_id</title>
<g id="a_edge7"><a xlink:title="customer_id &#45;&gt; customer_id">
<path fill="none" stroke="#4a90d9" stroke-dasharray="5,2" d="M244.5,-296C244.5,-296 245.5,-330 245.5,-330 245.5,-330 424,-330 424,-330 424,-330 502,-231 502,-231 502,-231 523.37,-189.56 531.72,-173.37"/>
<polygon fill="#4a90d9" stroke="#4a90d9" points="533.97,-174.34 535,-167 529.61,-172.1 533.97,-174.34"/>
</a>
</g>
</g>
<!-- tbl_dbo_regions -->
<g id="node3" class="node">
<title>tbl_dbo_regions</title>
<polygon fill="#34495e" stroke="transparent" points="247.5,-185 247.5,-208 421.5,-208 421.5,-185 247.5,-185"/>
<polygon fill="none" stroke="black" points="247.5,-185 247.5,-208 421.5,-208 421.5,-185 247.5,-185"/>
<text text-anchor="start" x="251.5" y="-193.8" font-family="Helvetica,sans-Serif" font-weight="bold" font-size="14.00" fill="white">dbo.regions</text>
<polygon fill="#ffd699" stroke="transparent" points="247.5,-162 247.5,-185 345.5,-185 345.5,-162 247.5,-162"/>
<polygon fill="none" stroke="black" points="247.5,-162 247.5,-185 345.5,-185 345.5,-162 247.5,-162"/>
<text text-anchor="start" x="251.5" y="-170.8" font-family="Helvetica,sans-Serif" font-weight="bold" font-size="14.00">region_id</text>
<polygon fill="#ffd699" stroke="transparent" points="345.5,-162 345.5,-185 421.5,-185 421.5,-162 345.5,-162"/>
<polygon fill="none" stroke="black" points="345.5,-162 345.5,-185 421.5,-185 421.5,-162 345.5,-162"/>
<text text-anchor="start" x="349.5" y="-169.8" font-family="Helvetica,sans-Serif" font-size="14.00" fill="#999999">INT</text>
<polygon fill="#d4edff" stroke="transparent" points="247.5,-139 247.5,-162 345.5,-162 345.5,-139 247.5,-139"/>
<polygon fill="none" stroke="black" points="247.5,-139 247.5,-162 345.5,-162 345.5,-139 247.5,-139"/>
<text text-anchor="start" x="251.5" y="-146.8" font-family="Helvetica,sans-Serif" font-size="14.00">region_name</text>
<polygon fill="#d4edff" stroke="transparent" points="345.5,-139 345.5,-162 421.5,-162 421.5,-139 345.5,-139"/>
<polygon fill="none" stroke="black" points="345.5,-139 345.5,-162 421.5,-162 421.5,-139 345.5,-139"/>
<text text-anchor="start" x="349.5" y="-146.8" font-family="Helvetica,sans-Serif" font-size="14.00" fill="#999999">VARCHAR</text>
</g>
<!-- tbl_dbo_regions&#45;&gt;stg_2___summary_ -->
<g id="edge3" class="edge">
<title>tbl_dbo_regions&#45;&gt;stg_2___summary_</title>
<g id="a_edge3"><a xlink:title="LEFT JOIN&#10;r.region_id = c.region_id">
<path fill="none" stroke="#e0b58a" d="M421.68,-166.24C462.3,-162.58 502,-159 502,-159 502,-159 513.36,-157.41 528.68,-155.26"/>
<polygon fill="#e0b58a" stroke="#e0b58a" points="529.33,-157.29 534.98,-154.38 528.74,-153.13 529.33,-157.29"/>
</a>
</g>
<text text-anchor="middle" x="479.5" y="-165.8" font-family="Helvetica,sans-Serif" font-size="9.00" fill="#e0b58a">LEFT JOIN</text>
</g>
<!-- tbl_dbo_regions&#45;&gt;stg_2___summary_ -->
<g id="edge8" class="edge">
<title>tbl_dbo_regions:region_name&#45;&gt;stg_2___summary_:region_name</title>
<g id="a_edge8"><a xlink:title="region_name &#45;&gt; region_name">
<path fill="none" stroke="#4a90d9" stroke-dasharray="5,2" d="M296.5,-138C296.5,-138 421.5,-139 421.5,-139 421.5,-139 503.05,-141.87 527.9,-142.75"/>
<polygon fill="#4a90d9" stroke="#4a90d9" points="527.92,-145.2 535,-143 528.09,-140.3 527.92,-145.2"/>
</a>
</g>
</g>
<!-- stg_1_recent&#45;&gt;stg_2___summary_ -->
<g id="edge4" class="edge">
<title>stg_1_recent&#45;&gt;stg_2___summary_</title>
<path fill="none" stroke="#666666" stroke-dasharray="5,2" d="M423.17,-83.53C455.73,-94.13 492.58,-106.12 524.83,-116.61"/>
<polygon fill="#666666" stroke="#666666" points="524.09,-120.05 534.68,-119.82 526.26,-113.39 524.09,-120.05"/>
<text text-anchor="middle" x="479.5" y="-109.8" font-family="Helvetica,sans-Serif" font-size="9.00" fill="#666666">CTE</text>
</g>
<!-- stg_1_recent&#45;&gt;stg_2___summary_ -->
<g id="edge9" class="edge">
<title>stg_1_recent:total&#45;&gt;stg_2___summary_:total</title>
<g id="a_edge9"><a xlink:title="total &#45;&gt; total">
<path fill="none" stroke="#4a90d9" stroke-dasharray="5,2" d="M245.5,-52C245.5,-52 246.5,0 246.5,0 246.5,0 423,0 423,0 423,0 457,-45 457,-45 457,-45 512.53,-98.39 529.88,-115.08"/>
<polygon fill="#4a90d9" stroke="#4a90d9" points="528.26,-116.91 535,-120 531.65,-113.38 528.26,-116.91"/>
</a>
</g>
</g>
<!-- stg_1_recent&#45;&gt;stg_2___summary_ -->
<g id="edge10" class="edge">
<title>stg_1_recent:n&#45;&gt;stg_2___summary_:n</title>
<g id="a_edge10"><a xlink:title="n &#45;&gt; n">
<path fill="none" stroke="#4a90d9" stroke-dasharray="5,2" d="M245.5,-29C245.5,-29 246.5,0 246.5,0 246.5,0 423,0 423,0 423,0 502,-48 502,-48 502,-48 522.14,-77.91 530.95,-90.99"/>
<polygon fill="#4a90d9" stroke="#4a90d9" points="529.06,-92.56 535,-97 533.12,-89.83 529.06,-92.56"/>
</a>
</g>
</g>
<!-- legend_node -->
<g id="node6" class="node">
<title>legend_node</title>
<polygon fill="#555555" stroke="transparent" points="16.5,-435 16.5,-454 175.5,-454 175.5,-435 16.5,-435"/>
<polygon fill="none" stroke="black" points="16.5,-435 16.5,-454 175.5,-454 175.5,-435 16.5,-435"/>
<text text-anchor="start" x="20.5" y="-443" font-family="Helvetica,sans-Serif" font-weight="bold" font-size="10.00" fill="white">Legend</text>
<polygon fill="#e0e0e0" stroke="transparent" points="16.5,-417 16.5,-435 175.5,-435 175.5,-417 16.5,-417"/>
<polygon fill="none" stroke="black" points="16.5,-417 16.5,-435 175.5,-435 175.5,-417 16.5,-417"/>
<text text-anchor="start" x="20.5" y="-424.8" font-family="Helvetica,sans-Serif" font-weight="bold" font-size="9.00">Node headers</text>
<polygon fill="#34495e" stroke="transparent" points="16.5,-399 16.5,-417 175.5,-417 175.5,-399 16.5,-399"/>
<polygon fill="none" stroke="black" points="16.5,-399 16.5,-417 175.5,-417 175.5,-399 16.5,-399"/>
<text text-anchor="start" x="20.5" y="-405.8" font-family="Helvetica,sans-Serif" font-size="9.00" fill="white">Physical table</text>
<polygon fill="#1e6b45" stroke="transparent" points="16.5,-381 16.5,-399 175.5,-399 175.5,-381 16.5,-381"/>
<polygon fill="none" stroke="black" points="16.5,-381 16.5,-399 175.5,-399 175.5,-381 16.5,-381"/>
<text text-anchor="start" x="20.5" y="-387.8" font-family="Helvetica,sans-Serif" font-size="9.00" fill="white">CTE / subquery stage</text>
<polygon fill="#1a4f7a" stroke="transparent" points="16.5,-363 16.5,-381 175.5,-381 175.5,-363 16.5,-363"/>
<polygon fill="none" stroke="black" points="16.5,-363 16.5,-381 175.5,-381 175.5,-363 16.5,-363"/>
<text text-anchor="start" x="20.5" y="-369.8" font-family="Helvetica,sans-Serif" font-size="9.00" fill="white">Output stage</text>
<polygon fill="#e0e0e0" stroke="transparent" points="16.5,-345 16.5,-363 175.5,-363 175.5,-345 16.5,-345"/>
<polygon fill="none" stroke="black" points="16.5,-345 16.5,-363 175.5,-363 175.5,-345 16.5,-345"/>
<text text-anchor="start" x="20.5" y="-352.8" font-family="Helvetica,sans-Serif" font-weight="bold" font-size="9.00">Column role (table nodes)</text>
<polygon fill="#d4edff" stroke="transparent" points="16.5,-327 16.5,-345 175.5,-345 175.5,-327 16.5,-327"/>
<polygon fill="none" stroke="black" points="16.5,-327 16.5,-345 175.5,-345 175.5,-327 16.5,-327"/>
<text text-anchor="start" x="20.5" y="-333.8" font-family="Helvetica,sans-Serif" font-size="9.00" fill="#222222">Projected</text>
<polygon fill="#ffd699" stroke="transparent" points="16.5,-309 16.5,-327 175.5,-327 175.5,-309 16.5,-309"/>
<polygon fill="none" stroke="black" points="16.5,-309 16.5,-327 175.5,-327 175.5,-309 16.5,-309"/>
<text text-anchor="start" x="20.5" y="-315.8" font-family="Helvetica,sans-Serif" font-size="9.00" fill="#222222">Join key only</text>
<polygon fill="#a9c9ee" stroke="transparent" points="16.5,-291 16.5,-309 175.5,-309 175.5,-291 16.5,-291"/>
<polygon fill="none" stroke="black" points="16.5,-291 16.5,-309 175.5,-309 175.5,-291 16.5,-291"/>
<text text-anchor="start" x="20.5" y="-297.8" font-family="Helvetica,sans-Serif" font-size="9.00" fill="#222222">Projected + key</text>
<polygon fill="#f9f9f9" stroke="transparent" points="16.5,-273 16.5,-291 175.5,-291 175.5,-273 16.5,-273"/>
<polygon fill="none" stroke="black" points="16.5,-273 16.5,-291 175.5,-291 175.5,-273 16.5,-273"/>
<text text-anchor="start" x="20.5" y="-279.8" font-family="Helvetica,sans-Serif" font-size="9.00" fill="#222222">Unused</text>
<polygon fill="#e0e0e0" stroke="transparent" points="16.5,-255 16.5,-273 175.5,-273 175.5,-255 16.5,-255"/>
<polygon fill="none" stroke="black" points="16.5,-255 16.5,-273 175.5,-273 175.5,-255 16.5,-255"/>
<text text-anchor="start" x="20.5" y="-262.8" font-family="Helvetica,sans-Serif" font-weight="bold" font-size="9.00">Transformation (stage nodes)</text>
<polygon fill="#fff3cd" stroke="transparent" points="16.5,-237 16.5,-255 175.5,-255 175.5,-237 16.5,-237"/>
<polygon fill="none" stroke="black" points="16.5,-237 16.5,-255 175.5,-255 175.5,-237 16.5,-237"/>
<text text-anchor="start" x="20.5" y="-243.8" font-family="Helvetica,sans-Serif" font-size="9.00" fill="#222222">aggregate</text>
<polygon fill="#ffffff" stroke="transparent" points="16.5,-219 16.5,-237 175.5,-237 175.5,-219 16.5,-219"/>
<polygon fill="none" stroke="black" points="16.5,-219 16.5,-237 175.5,-237 175.5,-219 16.5,-219"/>
<text text-anchor="start" x="20.5" y="-225.8" font-family="Helvetica,sans-Serif" font-size="9.00" fill="#222222">passthrough</text>
<polygon fill="#e0e0e0" stroke="transparent" points="16.5,-201 16.5,-219 175.5,-219 175.5,-201 16.5,-201"/>
<polygon fill="none" stroke="black" points="16.5,-201 16.5,-219 175.5,-219 175.5,-201 16.5,-201"/>
<text text-anchor="start" x="20.5" y="-208.8" font-family="Helvetica,sans-Serif" font-weight="bold" font-size="9.00">Edges</text>
<polygon fill="none" stroke="black" points="16.5,-183 16.5,-201 175.5,-201 175.5,-183 16.5,-183"/>
<text text-anchor="start" x="20.5" y="-189.8" font-family="Helvetica,sans-Serif" font-size="9.00" fill="#888888">&#45;&#45;&#45; &#160;Source / FROM</text>
<polygon fill="none" stroke="black" points="16.5,-165 16.5,-183 175.5,-183 175.5,-165 16.5,-165"/>
<text text-anchor="start" x="20.5" y="-171.8" font-family="Helvetica,sans-Serif" font-size="9.00" fill="#cc6600">&#45;&#45;&#45; &#160;JOIN (keys on hover)</text>
<polygon fill="none" stroke="black" points="16.5,-147 16.5,-165 175.5,-165 175.5,-147 16.5,-147"/>
<text text-anchor="start" x="20.5" y="-153.8" font-family="Helvetica,sans-Serif" font-size="9.00" fill="#666666">&#45; &#45; &#160;CTE reference</text>
<polygon fill="none" stroke="black" points="16.5,-129 16.5,-147 175.5,-147 175.5,-129 16.5,-129"/>
<text text-anchor="start" x="20.5" y="-135.8" font-family="Helvetica,sans-Serif" font-size="9.00" fill="#4a90d9">&#45; &#45; &#160;Column lineage</text>
</g>
</g>
</svg>
